<mxfile host="Electron" modified="2023-12-20T14:51:06.216Z" agent="Mozilla/5.0 (X11; Linux x86_64) AppleWebKit/537.36 (KHTML, like Gecko) draw.io/22.0.3 Chrome/114.0.5735.289 Electron/25.8.4 Safari/537.36" etag="fEYUNmUWq_iWilXW8gJi" version="22.0.3" type="device">
  <diagram name="Page-1" id="wfNevTcWIVov-KL_FzL3">
    <mxGraphModel dx="5949" dy="2900" grid="1" gridSize="10" guides="1" tooltips="1" connect="1" arrows="1" fold="1" page="1" pageScale="1" pageWidth="1169" pageHeight="827" math="0" shadow="0">
      <root>
        <mxCell id="0" />
        <mxCell id="1" parent="0" />
        <mxCell id="lyCUNibUH-FkbTB6WP0E-1" value="" style="rounded=0;whiteSpace=wrap;html=1;fillColor=none;dashed=1;dashPattern=12 12;strokeColor=#0000FF;strokeWidth=5;" vertex="1" parent="1">
          <mxGeometry x="635" y="270" width="555" height="195" as="geometry" />
        </mxCell>
        <mxCell id="lyCUNibUH-FkbTB6WP0E-2" value="" style="rounded=0;whiteSpace=wrap;html=1;fillColor=none;dashed=1;dashPattern=12 12;strokeColor=#33FF33;strokeWidth=5;" vertex="1" parent="1">
          <mxGeometry x="-600" y="1050" width="2165" height="405" as="geometry" />
        </mxCell>
        <mxCell id="lyCUNibUH-FkbTB6WP0E-3" value="" style="rounded=0;whiteSpace=wrap;html=1;fillColor=none;dashed=1;dashPattern=12 12;strokeColor=#FF0000;strokeWidth=5;" vertex="1" parent="1">
          <mxGeometry x="-600" y="480" width="1925" height="540" as="geometry" />
        </mxCell>
        <mxCell id="lyCUNibUH-FkbTB6WP0E-4" value="&lt;font color=&quot;#ffffff&quot;&gt;+SImulation&lt;/font&gt;" style="swimlane;fontStyle=0;childLayout=stackLayout;horizontal=1;startSize=26;fillColor=#000000;horizontalStack=0;resizeParent=1;resizeParentMax=0;resizeLast=0;collapsible=1;marginBottom=0;whiteSpace=wrap;html=1;" vertex="1" parent="1">
          <mxGeometry x="496" y="1155" width="180" height="280" as="geometry" />
        </mxCell>
        <mxCell id="lyCUNibUH-FkbTB6WP0E-5" value="+ ENDPOINT: String&lt;br&gt;&lt;div&gt;- id: Long&lt;br&gt;&lt;/div&gt;&lt;div&gt;- difficulty: int&lt;/div&gt;&lt;div&gt;- speed: float&lt;/div&gt;" style="text;strokeColor=#000000;fillColor=#4D4D4D;align=left;verticalAlign=top;spacingLeft=4;spacingRight=4;overflow=hidden;rotatable=0;points=[[0,0.5],[1,0.5]];portConstraint=eastwest;whiteSpace=wrap;html=1;fontColor=#FFFFFF;" vertex="1" parent="lyCUNibUH-FkbTB6WP0E-4">
          <mxGeometry y="26" width="180" height="94" as="geometry" />
        </mxCell>
        <mxCell id="lyCUNibUH-FkbTB6WP0E-6" value="&lt;div&gt;+ getId()&lt;br&gt;&lt;/div&gt;&lt;div&gt;+ setId(Long: id)&lt;br&gt;&lt;/div&gt;&lt;div&gt;+ getDifficulty()&lt;/div&gt;&lt;div&gt;+ setDifficulty(int: difficulty)&lt;/div&gt;&lt;div&gt;+ getSpeed()&lt;/div&gt;&lt;div&gt;+ setSpeed(float: speed)&lt;br&gt;&lt;/div&gt;&lt;div&gt;+ getWeather()&lt;/div&gt;&lt;div&gt;+ getDifficulty()&lt;/div&gt;&lt;div&gt;+ setWeather(Weather: id)&lt;br&gt;&lt;/div&gt;&lt;div&gt;+ setDifficulty(Difficulty: id)&lt;/div&gt;" style="text;strokeColor=default;fillColor=#4D4D4D;align=left;verticalAlign=top;spacingLeft=4;spacingRight=4;overflow=hidden;rotatable=0;points=[[0,0.5],[1,0.5]];portConstraint=eastwest;whiteSpace=wrap;html=1;fontColor=#FFFFFF;" vertex="1" parent="lyCUNibUH-FkbTB6WP0E-4">
          <mxGeometry y="120" width="180" height="160" as="geometry" />
        </mxCell>
        <mxCell id="lyCUNibUH-FkbTB6WP0E-7" value="&lt;font color=&quot;#ffffff&quot;&gt;+Event_incident&lt;/font&gt;" style="swimlane;fontStyle=0;childLayout=stackLayout;horizontal=1;startSize=26;fillColor=#000000;horizontalStack=0;resizeParent=1;resizeParentMax=0;resizeLast=0;collapsible=1;marginBottom=0;whiteSpace=wrap;html=1;" vertex="1" parent="1">
          <mxGeometry x="1117" y="1154" width="190" height="250" as="geometry">
            <mxRectangle x="230" y="30" width="110" height="30" as="alternateBounds" />
          </mxGeometry>
        </mxCell>
        <mxCell id="lyCUNibUH-FkbTB6WP0E-8" value="&lt;div&gt;+ ENDPOINT: String&lt;br&gt;&lt;/div&gt;&lt;div&gt;- id: Long&lt;br&gt;&lt;/div&gt;&lt;div&gt;- name: String&lt;/div&gt;&lt;div&gt;&lt;span style=&quot;background-color: initial;&quot;&gt;- pound: Float&lt;/span&gt;&lt;br&gt;&lt;/div&gt;" style="text;strokeColor=#000000;fillColor=#4D4D4D;align=left;verticalAlign=top;spacingLeft=4;spacingRight=4;overflow=hidden;rotatable=0;points=[[0,0.5],[1,0.5]];portConstraint=eastwest;whiteSpace=wrap;html=1;fontColor=#FFFFFF;" vertex="1" parent="lyCUNibUH-FkbTB6WP0E-7">
          <mxGeometry y="26" width="190" height="94" as="geometry" />
        </mxCell>
        <mxCell id="lyCUNibUH-FkbTB6WP0E-9" value="&lt;div&gt;+ getId()&lt;br&gt;&lt;/div&gt;&lt;div&gt;+ setId(Long: id)&lt;br&gt;&lt;/div&gt;&lt;div&gt;+ getName()&lt;/div&gt;&lt;div&gt;+ setName(String: name)&lt;/div&gt;&lt;div&gt;&lt;span style=&quot;background-color: initial;&quot;&gt;+ getPound()&lt;/span&gt;&lt;br&gt;&lt;/div&gt;&lt;div&gt;&lt;div style=&quot;border-color: var(--border-color);&quot;&gt;+ setPound(Long pound)&lt;/div&gt;&lt;/div&gt;" style="text;strokeColor=default;fillColor=#4D4D4D;align=left;verticalAlign=top;spacingLeft=4;spacingRight=4;overflow=hidden;rotatable=0;points=[[0,0.5],[1,0.5]];portConstraint=eastwest;whiteSpace=wrap;html=1;fontColor=#FFFFFF;" vertex="1" parent="lyCUNibUH-FkbTB6WP0E-7">
          <mxGeometry y="120" width="190" height="130" as="geometry" />
        </mxCell>
        <mxCell id="lyCUNibUH-FkbTB6WP0E-10" value="&lt;div&gt;&lt;font color=&quot;#ffffff&quot;&gt;+Difficulty&lt;/font&gt;&lt;/div&gt;" style="swimlane;fontStyle=0;childLayout=stackLayout;horizontal=1;startSize=26;fillColor=#000000;horizontalStack=0;resizeParent=1;resizeParentMax=0;resizeLast=0;collapsible=1;marginBottom=0;whiteSpace=wrap;html=1;" vertex="1" parent="1">
          <mxGeometry x="684" y="1154" width="200" height="230" as="geometry">
            <mxRectangle x="230" y="30" width="110" height="30" as="alternateBounds" />
          </mxGeometry>
        </mxCell>
        <mxCell id="lyCUNibUH-FkbTB6WP0E-11" value="&lt;div&gt;+ ENDPOINT: String&lt;br&gt;&lt;/div&gt;&lt;div&gt;- id: Long&lt;br&gt;&lt;/div&gt;&lt;div&gt;- name: String&lt;/div&gt;&lt;div&gt;- pound: float&lt;/div&gt;" style="text;strokeColor=#000000;fillColor=#4D4D4D;align=left;verticalAlign=top;spacingLeft=4;spacingRight=4;overflow=hidden;rotatable=0;points=[[0,0.5],[1,0.5]];portConstraint=eastwest;whiteSpace=wrap;html=1;fontColor=#FFFFFF;" vertex="1" parent="lyCUNibUH-FkbTB6WP0E-10">
          <mxGeometry y="26" width="200" height="94" as="geometry" />
        </mxCell>
        <mxCell id="lyCUNibUH-FkbTB6WP0E-12" value="&lt;div&gt;+ getId()&lt;br&gt;&lt;/div&gt;&lt;div&gt;+ setId(Long: id)&lt;br&gt;&lt;/div&gt;&lt;div&gt;+ getName()&lt;/div&gt;&lt;div&gt;+ setName(String name)&lt;/div&gt;&lt;div&gt;&lt;div&gt;+ getPound()&lt;/div&gt;&lt;div&gt;+ setPound(Long pound)&lt;/div&gt;&lt;/div&gt;" style="text;strokeColor=default;fillColor=#4D4D4D;align=left;verticalAlign=top;spacingLeft=4;spacingRight=4;overflow=hidden;rotatable=0;points=[[0,0.5],[1,0.5]];portConstraint=eastwest;whiteSpace=wrap;html=1;fontColor=#FFFFFF;" vertex="1" parent="lyCUNibUH-FkbTB6WP0E-10">
          <mxGeometry y="120" width="200" height="110" as="geometry" />
        </mxCell>
        <mxCell id="lyCUNibUH-FkbTB6WP0E-13" value="&lt;font color=&quot;#ffffff&quot;&gt;+Weather&lt;/font&gt;" style="swimlane;fontStyle=0;childLayout=stackLayout;horizontal=1;startSize=26;fillColor=#000000;horizontalStack=0;resizeParent=1;resizeParentMax=0;resizeLast=0;collapsible=1;marginBottom=0;whiteSpace=wrap;html=1;" vertex="1" parent="1">
          <mxGeometry x="894" y="1154" width="210" height="250" as="geometry">
            <mxRectangle x="230" y="30" width="110" height="30" as="alternateBounds" />
          </mxGeometry>
        </mxCell>
        <mxCell id="lyCUNibUH-FkbTB6WP0E-14" value="&lt;div&gt;+ ENDPOINT: String&lt;br&gt;&lt;/div&gt;&lt;div&gt;- id: Long&lt;br&gt;&lt;/div&gt;&lt;div&gt;- name: String&lt;/div&gt;&lt;div&gt;- level: Int&lt;br&gt;&lt;/div&gt;&lt;div&gt;- pound: Int&lt;/div&gt;" style="text;strokeColor=#000000;fillColor=#4D4D4D;align=left;verticalAlign=top;spacingLeft=4;spacingRight=4;overflow=hidden;rotatable=0;points=[[0,0.5],[1,0.5]];portConstraint=eastwest;whiteSpace=wrap;html=1;fontColor=#FFFFFF;" vertex="1" parent="lyCUNibUH-FkbTB6WP0E-13">
          <mxGeometry y="26" width="210" height="94" as="geometry" />
        </mxCell>
        <mxCell id="lyCUNibUH-FkbTB6WP0E-15" value="&lt;div&gt;+ getId()&lt;br&gt;&lt;/div&gt;&lt;div&gt;+ setId(Long: id)&lt;br&gt;&lt;/div&gt;&lt;div&gt;&lt;div style=&quot;border-color: var(--border-color);&quot;&gt;+ getName()&lt;/div&gt;&lt;div style=&quot;border-color: var(--border-color);&quot;&gt;+ setName(String name)&lt;/div&gt;&lt;div style=&quot;border-color: var(--border-color);&quot;&gt;&lt;div style=&quot;border-color: var(--border-color);&quot;&gt;+ getPound()&lt;/div&gt;&lt;div style=&quot;border-color: var(--border-color);&quot;&gt;+ setPound(Long pound)&lt;/div&gt;&lt;/div&gt;&lt;/div&gt;&lt;div&gt;&lt;span style=&quot;background-color: initial;&quot;&gt;+ getLevel()&lt;/span&gt;&lt;br&gt;&lt;/div&gt;&lt;div&gt;&lt;div style=&quot;border-color: var(--border-color);&quot;&gt;+ setLevel(Long pound)&lt;/div&gt;&lt;/div&gt;" style="text;strokeColor=default;fillColor=#4D4D4D;align=left;verticalAlign=top;spacingLeft=4;spacingRight=4;overflow=hidden;rotatable=0;points=[[0,0.5],[1,0.5]];portConstraint=eastwest;whiteSpace=wrap;html=1;fontColor=#FFFFFF;" vertex="1" parent="lyCUNibUH-FkbTB6WP0E-13">
          <mxGeometry y="120" width="210" height="130" as="geometry" />
        </mxCell>
        <mxCell id="lyCUNibUH-FkbTB6WP0E-16" value="&lt;font color=&quot;#ffffff&quot;&gt;+Equipement&lt;/font&gt;" style="swimlane;fontStyle=0;childLayout=stackLayout;horizontal=1;startSize=26;fillColor=#000000;horizontalStack=0;resizeParent=1;resizeParentMax=0;resizeLast=0;collapsible=1;marginBottom=0;whiteSpace=wrap;html=1;" vertex="1" parent="1">
          <mxGeometry x="226" y="1155" width="260" height="285" as="geometry">
            <mxRectangle x="230" y="30" width="110" height="30" as="alternateBounds" />
          </mxGeometry>
        </mxCell>
        <mxCell id="lyCUNibUH-FkbTB6WP0E-17" value="&lt;div&gt;+ ENDPOINT: String&lt;br&gt;&lt;/div&gt;&lt;div&gt;- id: Long&lt;br&gt;&lt;/div&gt;&lt;div&gt;- name: String&lt;/div&gt;&lt;div&gt;- idTypeEquipement: Int&lt;br&gt;&lt;/div&gt;&lt;div&gt;- idFireStation: Int&lt;/div&gt;&lt;div&gt;- isAvailable: Boolean&lt;/div&gt;" style="text;strokeColor=#000000;fillColor=#4D4D4D;align=left;verticalAlign=top;spacingLeft=4;spacingRight=4;overflow=hidden;rotatable=0;points=[[0,0.5],[1,0.5]];portConstraint=eastwest;whiteSpace=wrap;html=1;fontColor=#FFFFFF;" vertex="1" parent="lyCUNibUH-FkbTB6WP0E-16">
          <mxGeometry y="26" width="260" height="94" as="geometry" />
        </mxCell>
        <mxCell id="lyCUNibUH-FkbTB6WP0E-18" value="&lt;div&gt;+ getId()&lt;br&gt;&lt;/div&gt;&lt;div&gt;+ setId(Long: id)&lt;br&gt;&lt;/div&gt;&lt;div&gt;+ getName()&lt;/div&gt;&lt;div&gt;+ setName(String name)&lt;/div&gt;&lt;div&gt;+ getTypeEquipement()&lt;/div&gt;&lt;div&gt;+ setTypeEquipement(TypeEquipement: type)&lt;br&gt;&lt;/div&gt;&lt;div&gt;+ getFireStation()&lt;/div&gt;&lt;div&gt;+ setFirestation(FireStation: fireStation)&lt;/div&gt;&lt;div&gt;+ isAvailable()&lt;/div&gt;&lt;div&gt;+ setAvailable(Boolean: available)&lt;/div&gt;" style="text;strokeColor=default;fillColor=#4D4D4D;align=left;verticalAlign=top;spacingLeft=4;spacingRight=4;overflow=hidden;rotatable=0;points=[[0,0.5],[1,0.5]];portConstraint=eastwest;whiteSpace=wrap;html=1;fontColor=#FFFFFF;" vertex="1" parent="lyCUNibUH-FkbTB6WP0E-16">
          <mxGeometry y="120" width="260" height="165" as="geometry" />
        </mxCell>
        <mxCell id="lyCUNibUH-FkbTB6WP0E-19" value="&lt;font color=&quot;#ffffff&quot;&gt;+Sensor&lt;/font&gt;" style="swimlane;fontStyle=0;childLayout=stackLayout;horizontal=1;startSize=26;fillColor=#000000;horizontalStack=0;resizeParent=1;resizeParentMax=0;resizeLast=0;collapsible=1;marginBottom=0;whiteSpace=wrap;html=1;" vertex="1" parent="1">
          <mxGeometry x="-370" y="1155" width="190" height="230" as="geometry" />
        </mxCell>
        <mxCell id="lyCUNibUH-FkbTB6WP0E-20" value="&lt;div&gt;+ ENDPOINT: String&lt;br&gt;&lt;/div&gt;&lt;div&gt;- id: Long&lt;br&gt;&lt;/div&gt;&lt;div&gt;- lattitude: Float&lt;/div&gt;&lt;div&gt;- longitude: Float&lt;br&gt;&lt;/div&gt;&lt;div&gt;- lastHistoSensor: HistoSensor&lt;br&gt;&lt;/div&gt;" style="text;strokeColor=#000000;fillColor=#4D4D4D;align=left;verticalAlign=top;spacingLeft=4;spacingRight=4;overflow=hidden;rotatable=0;points=[[0,0.5],[1,0.5]];portConstraint=eastwest;whiteSpace=wrap;html=1;fontColor=#FFFFFF;" vertex="1" parent="lyCUNibUH-FkbTB6WP0E-19">
          <mxGeometry y="26" width="190" height="94" as="geometry" />
        </mxCell>
        <mxCell id="lyCUNibUH-FkbTB6WP0E-21" value="&lt;div&gt;+ getId()&lt;br&gt;&lt;/div&gt;&lt;div&gt;+ setId(Long: id)&lt;br&gt;&lt;/div&gt;&lt;div&gt;+ getLattitude()&lt;/div&gt;&lt;div&gt;+ setLattitude(Float lattitude)&lt;/div&gt;&lt;div&gt;+ getLongitude()&lt;/div&gt;&lt;div&gt;+ setLongitude(Float longitude)&lt;/div&gt;&lt;div&gt;+ getLastHisto()&lt;br&gt;&lt;/div&gt;&lt;div&gt;&lt;br&gt;&lt;/div&gt;" style="text;strokeColor=default;fillColor=#4D4D4D;align=left;verticalAlign=top;spacingLeft=4;spacingRight=4;overflow=hidden;rotatable=0;points=[[0,0.5],[1,0.5]];portConstraint=eastwest;whiteSpace=wrap;html=1;fontColor=#FFFFFF;" vertex="1" parent="lyCUNibUH-FkbTB6WP0E-19">
          <mxGeometry y="120" width="190" height="110" as="geometry" />
        </mxCell>
        <mxCell id="lyCUNibUH-FkbTB6WP0E-22" value="&lt;font color=&quot;#ffffff&quot;&gt;+Incident&lt;/font&gt;" style="swimlane;fontStyle=0;childLayout=stackLayout;horizontal=1;startSize=26;fillColor=#000000;horizontalStack=0;resizeParent=1;resizeParentMax=0;resizeLast=0;collapsible=1;marginBottom=0;whiteSpace=wrap;html=1;" vertex="1" parent="1">
          <mxGeometry x="-160" y="1154" width="170" height="205" as="geometry" />
        </mxCell>
        <mxCell id="lyCUNibUH-FkbTB6WP0E-23" value="&lt;div&gt;+ ENDPOINT: String&lt;br&gt;&lt;/div&gt;&lt;div&gt;- id: Long&lt;/div&gt;&lt;div&gt;- status: Int&lt;br&gt;&lt;/div&gt;&lt;div&gt;- equipements: Equipement[]&lt;/div&gt;&lt;div&gt;- sensors: Sensor[]&lt;/div&gt;&lt;div&gt;- teams: IncidentTeams[]&lt;br&gt;&lt;/div&gt;" style="text;strokeColor=#000000;fillColor=#4D4D4D;align=left;verticalAlign=top;spacingLeft=4;spacingRight=4;overflow=hidden;rotatable=0;points=[[0,0.5],[1,0.5]];portConstraint=eastwest;whiteSpace=wrap;html=1;fontColor=#FFFFFF;" vertex="1" parent="lyCUNibUH-FkbTB6WP0E-22">
          <mxGeometry y="26" width="170" height="109" as="geometry" />
        </mxCell>
        <mxCell id="lyCUNibUH-FkbTB6WP0E-24" value="&lt;div&gt;+ getId()&lt;/div&gt;&lt;div&gt;+ setId(Long id)&lt;/div&gt;&lt;div&gt;+ getStatus()&lt;/div&gt;&lt;div&gt;+ setStatus(Int status)&lt;/div&gt;" style="text;strokeColor=default;fillColor=#4D4D4D;align=left;verticalAlign=top;spacingLeft=4;spacingRight=4;overflow=hidden;rotatable=0;points=[[0,0.5],[1,0.5]];portConstraint=eastwest;whiteSpace=wrap;html=1;fontColor=#FFFFFF;" vertex="1" parent="lyCUNibUH-FkbTB6WP0E-22">
          <mxGeometry y="135" width="170" height="70" as="geometry" />
        </mxCell>
        <mxCell id="lyCUNibUH-FkbTB6WP0E-25" value="&lt;font color=&quot;#ffffff&quot;&gt;+SensorHisto&lt;/font&gt;" style="swimlane;fontStyle=0;childLayout=stackLayout;horizontal=1;startSize=26;fillColor=#000000;horizontalStack=0;resizeParent=1;resizeParentMax=0;resizeLast=0;collapsible=1;marginBottom=0;whiteSpace=wrap;html=1;" vertex="1" parent="1">
          <mxGeometry x="34" y="1155" width="180" height="265" as="geometry" />
        </mxCell>
        <mxCell id="lyCUNibUH-FkbTB6WP0E-26" value="&lt;div&gt;+ ENDPOINT: String&lt;br&gt;&lt;/div&gt;&lt;div&gt;- id: Long&lt;/div&gt;&lt;div&gt;- idSensor: Long&lt;br&gt;&lt;/div&gt;&lt;div&gt;- level: Int&lt;/div&gt;&lt;div&gt;- date: DateTime&lt;/div&gt;&lt;div&gt;- isProcessed: boolean&lt;br&gt;&lt;/div&gt;" style="text;strokeColor=#000000;fillColor=#4D4D4D;align=left;verticalAlign=top;spacingLeft=4;spacingRight=4;overflow=hidden;rotatable=0;points=[[0,0.5],[1,0.5]];portConstraint=eastwest;whiteSpace=wrap;html=1;fontColor=#FFFFFF;" vertex="1" parent="lyCUNibUH-FkbTB6WP0E-25">
          <mxGeometry y="26" width="180" height="109" as="geometry" />
        </mxCell>
        <mxCell id="lyCUNibUH-FkbTB6WP0E-27" value="&lt;div&gt;+ getId()&lt;br&gt;&lt;/div&gt;&lt;div&gt;+ setId(Long: id)&lt;br&gt;&lt;/div&gt;&lt;div&gt;+ getSensor()&lt;/div&gt;&lt;div&gt;+ setSensor(Sensor sensor)&lt;/div&gt;&lt;div&gt;+ getLevel()&lt;/div&gt;&lt;div&gt;+ getDate()&lt;/div&gt;&lt;div&gt;+ getIsProcesed()&lt;/div&gt;&lt;div&gt;+ isProcessed()&lt;br&gt;&lt;/div&gt;" style="text;strokeColor=default;fillColor=#4D4D4D;align=left;verticalAlign=top;spacingLeft=4;spacingRight=4;overflow=hidden;rotatable=0;points=[[0,0.5],[1,0.5]];portConstraint=eastwest;whiteSpace=wrap;html=1;fontColor=#FFFFFF;" vertex="1" parent="lyCUNibUH-FkbTB6WP0E-25">
          <mxGeometry y="135" width="180" height="130" as="geometry" />
        </mxCell>
        <mxCell id="lyCUNibUH-FkbTB6WP0E-28" value="" style="endArrow=none;html=1;rounded=0;strokeColor=#000000;fillColor=#000000;strokeWidth=7;startArrow=classic;startFill=1;endFill=0;exitX=0.5;exitY=1;exitDx=0;exitDy=0;" edge="1" parent="1" source="lyCUNibUH-FkbTB6WP0E-67">
          <mxGeometry width="50" height="50" relative="1" as="geometry">
            <mxPoint x="320" y="690" as="sourcePoint" />
            <mxPoint x="310" y="735" as="targetPoint" />
          </mxGeometry>
        </mxCell>
        <mxCell id="lyCUNibUH-FkbTB6WP0E-29" value="" style="endArrow=none;html=1;rounded=0;fillColor=#000000;strokeWidth=7;" edge="1" parent="1">
          <mxGeometry width="50" height="50" relative="1" as="geometry">
            <mxPoint x="-490" y="735" as="sourcePoint" />
            <mxPoint x="1220" y="735" as="targetPoint" />
          </mxGeometry>
        </mxCell>
        <mxCell id="lyCUNibUH-FkbTB6WP0E-30" value="" style="endArrow=none;html=1;rounded=0;strokeColor=#000000;fillColor=#000000;strokeWidth=7;endFill=0;" edge="1" parent="1" target="lyCUNibUH-FkbTB6WP0E-56">
          <mxGeometry width="50" height="50" relative="1" as="geometry">
            <mxPoint x="356" y="735" as="sourcePoint" />
            <mxPoint x="324" y="755" as="targetPoint" />
          </mxGeometry>
        </mxCell>
        <mxCell id="lyCUNibUH-FkbTB6WP0E-31" value="" style="endArrow=none;html=1;rounded=0;strokeColor=#000000;fillColor=#000000;strokeWidth=7;endFill=0;" edge="1" parent="1" target="lyCUNibUH-FkbTB6WP0E-44">
          <mxGeometry width="50" height="50" relative="1" as="geometry">
            <mxPoint x="586" y="735" as="sourcePoint" />
            <mxPoint x="376" y="803" as="targetPoint" />
          </mxGeometry>
        </mxCell>
        <mxCell id="lyCUNibUH-FkbTB6WP0E-32" value="" style="endArrow=none;html=1;rounded=0;strokeColor=#000000;fillColor=#000000;strokeWidth=7;endFill=0;" edge="1" parent="1" target="lyCUNibUH-FkbTB6WP0E-50">
          <mxGeometry width="50" height="50" relative="1" as="geometry">
            <mxPoint x="784" y="735" as="sourcePoint" />
            <mxPoint x="606" y="803" as="targetPoint" />
          </mxGeometry>
        </mxCell>
        <mxCell id="lyCUNibUH-FkbTB6WP0E-33" value="" style="endArrow=none;html=1;rounded=0;strokeColor=#000000;fillColor=#000000;strokeWidth=7;entryX=0.489;entryY=0.044;entryDx=0;entryDy=0;endFill=0;entryPerimeter=0;" edge="1" parent="1" target="lyCUNibUH-FkbTB6WP0E-66">
          <mxGeometry width="50" height="50" relative="1" as="geometry">
            <mxPoint x="124" y="735" as="sourcePoint" />
            <mxPoint x="376" y="803" as="targetPoint" />
          </mxGeometry>
        </mxCell>
        <mxCell id="lyCUNibUH-FkbTB6WP0E-34" value="" style="endArrow=none;html=1;rounded=0;strokeColor=#000000;fillColor=#000000;strokeWidth=7;endFill=0;" edge="1" parent="1" target="lyCUNibUH-FkbTB6WP0E-62">
          <mxGeometry width="50" height="50" relative="1" as="geometry">
            <mxPoint x="-92" y="735" as="sourcePoint" />
            <mxPoint x="-69" y="803" as="targetPoint" />
          </mxGeometry>
        </mxCell>
        <mxCell id="lyCUNibUH-FkbTB6WP0E-35" value="" style="endArrow=none;html=1;rounded=0;strokeColor=#000000;fillColor=#000000;strokeWidth=7;entryX=0.5;entryY=0;entryDx=0;entryDy=0;endFill=0;" edge="1" parent="1" target="lyCUNibUH-FkbTB6WP0E-57">
          <mxGeometry width="50" height="50" relative="1" as="geometry">
            <mxPoint x="-295" y="735" as="sourcePoint" />
            <mxPoint x="-274" y="803" as="targetPoint" />
            <Array as="points" />
          </mxGeometry>
        </mxCell>
        <mxCell id="lyCUNibUH-FkbTB6WP0E-36" value="&lt;font color=&quot;#ffffff&quot;&gt;+ApiClient&lt;/font&gt;" style="swimlane;fontStyle=0;childLayout=stackLayout;horizontal=1;startSize=26;fillColor=#000000;horizontalStack=0;resizeParent=1;resizeParentMax=0;resizeLast=0;collapsible=1;marginBottom=0;whiteSpace=wrap;html=1;" vertex="1" parent="1">
          <mxGeometry x="710" y="277.5" width="180" height="180" as="geometry" />
        </mxCell>
        <mxCell id="lyCUNibUH-FkbTB6WP0E-37" value="&lt;div&gt;&lt;font color=&quot;#ffffff&quot;&gt;- httpClient&lt;/font&gt;&lt;/div&gt;&lt;div&gt;&lt;font color=&quot;#ffffff&quot;&gt;- objectMapper&lt;br&gt;&lt;/font&gt;&lt;/div&gt;&lt;div&gt;&lt;font color=&quot;#ffffff&quot;&gt;+ RadicalURL&lt;/font&gt;&lt;/div&gt;" style="text;strokeColor=#000000;fillColor=#4D4D4D;align=left;verticalAlign=top;spacingLeft=4;spacingRight=4;overflow=hidden;rotatable=0;points=[[0,0.5],[1,0.5]];portConstraint=eastwest;whiteSpace=wrap;html=1;" vertex="1" parent="lyCUNibUH-FkbTB6WP0E-36">
          <mxGeometry y="26" width="180" height="49" as="geometry" />
        </mxCell>
        <mxCell id="lyCUNibUH-FkbTB6WP0E-38" value="&lt;div&gt;&lt;font color=&quot;#ffffff&quot;&gt;+ get()&lt;/font&gt;&lt;/div&gt;&lt;div&gt;&lt;font color=&quot;#ffffff&quot;&gt;+ getOneById()&lt;br&gt;&lt;/font&gt;&lt;/div&gt;&lt;div&gt;&lt;font color=&quot;#ffffff&quot;&gt;+ post()&lt;/font&gt;&lt;/div&gt;&lt;div&gt;&lt;font color=&quot;#ffffff&quot;&gt;+ patch()&lt;br&gt;&lt;/font&gt;&lt;/div&gt;&lt;div&gt;&lt;font color=&quot;#ffffff&quot;&gt;+ delete()&lt;/font&gt;&lt;/div&gt;&lt;div&gt;&lt;font color=&quot;#ffffff&quot;&gt;+ &lt;code class=&quot;!whitespace-pre hljs language-java&quot;&gt;&lt;font face=&quot;Helvetica&quot;&gt;executeRequest()&lt;/font&gt;&lt;/code&gt;&lt;/font&gt;&lt;/div&gt;" style="text;strokeColor=default;fillColor=#4D4D4D;align=left;verticalAlign=top;spacingLeft=4;spacingRight=4;overflow=hidden;rotatable=0;points=[[0,0.5],[1,0.5]];portConstraint=eastwest;whiteSpace=wrap;html=1;" vertex="1" parent="lyCUNibUH-FkbTB6WP0E-36">
          <mxGeometry y="75" width="180" height="105" as="geometry" />
        </mxCell>
        <mxCell id="lyCUNibUH-FkbTB6WP0E-39" value="&lt;font color=&quot;#ffffff&quot;&gt;+SensorsProcessing&lt;/font&gt;" style="swimlane;fontStyle=0;childLayout=stackLayout;horizontal=1;startSize=26;fillColor=#000000;horizontalStack=0;resizeParent=1;resizeParentMax=0;resizeLast=0;collapsible=1;marginBottom=0;whiteSpace=wrap;html=1;" vertex="1" parent="1">
          <mxGeometry x="-220" y="270" width="255" height="180" as="geometry" />
        </mxCell>
        <mxCell id="lyCUNibUH-FkbTB6WP0E-40" value="&lt;font color=&quot;#ffffff&quot;&gt;- sensorHistoRepository&lt;br&gt;- sensorRepository&lt;br&gt;&lt;/font&gt;" style="text;strokeColor=#000000;fillColor=#4D4D4D;align=left;verticalAlign=top;spacingLeft=4;spacingRight=4;overflow=hidden;rotatable=0;points=[[0,0.5],[1,0.5]];portConstraint=eastwest;whiteSpace=wrap;html=1;" vertex="1" parent="lyCUNibUH-FkbTB6WP0E-39">
          <mxGeometry y="26" width="255" height="49" as="geometry" />
        </mxCell>
        <mxCell id="lyCUNibUH-FkbTB6WP0E-41" value="&lt;div&gt;&lt;font color=&quot;#ffffff&quot;&gt;+ mainThread()&lt;/font&gt;&lt;/div&gt;&lt;div&gt;&lt;font color=&quot;#ffffff&quot;&gt;+ traiterSensoHisto&lt;/font&gt;&lt;/div&gt;&lt;div&gt;&lt;font color=&quot;#ffffff&quot;&gt;+ sensorNeighbor(Sensor: sensor)&lt;/font&gt;&lt;/div&gt;&lt;div&gt;&lt;font color=&quot;#ffffff&quot;&gt;+ estConcerneParIncicent(Sensor: sensor)&lt;/font&gt;&lt;/div&gt;" style="text;strokeColor=default;fillColor=#4D4D4D;align=left;verticalAlign=top;spacingLeft=4;spacingRight=4;overflow=hidden;rotatable=0;points=[[0,0.5],[1,0.5]];portConstraint=eastwest;whiteSpace=wrap;html=1;" vertex="1" parent="lyCUNibUH-FkbTB6WP0E-39">
          <mxGeometry y="75" width="255" height="105" as="geometry" />
        </mxCell>
        <mxCell id="lyCUNibUH-FkbTB6WP0E-42" value="&lt;font color=&quot;#ffffff&quot;&gt;+ EventIncidentRepository&lt;/font&gt;" style="swimlane;fontStyle=0;childLayout=stackLayout;horizontal=1;startSize=26;fillColor=#000000;horizontalStack=0;resizeParent=1;resizeParentMax=0;resizeLast=0;collapsible=1;marginBottom=0;whiteSpace=wrap;html=1;" vertex="1" parent="1">
          <mxGeometry x="496" y="783" width="180" height="90" as="geometry" />
        </mxCell>
        <mxCell id="lyCUNibUH-FkbTB6WP0E-43" value="" style="text;strokeColor=#000000;fillColor=#4D4D4D;align=left;verticalAlign=top;spacingLeft=4;spacingRight=4;overflow=hidden;rotatable=0;points=[[0,0.5],[1,0.5]];portConstraint=eastwest;whiteSpace=wrap;html=1;fontColor=#FFFFFF;" vertex="1" parent="lyCUNibUH-FkbTB6WP0E-42">
          <mxGeometry y="26" width="180" height="34" as="geometry" />
        </mxCell>
        <mxCell id="lyCUNibUH-FkbTB6WP0E-44" value="&lt;div&gt;&lt;br&gt;&lt;/div&gt;" style="text;strokeColor=default;fillColor=#4D4D4D;align=left;verticalAlign=top;spacingLeft=4;spacingRight=4;overflow=hidden;rotatable=0;points=[[0,0.5],[1,0.5]];portConstraint=eastwest;whiteSpace=wrap;html=1;fontColor=#FFFFFF;" vertex="1" parent="lyCUNibUH-FkbTB6WP0E-42">
          <mxGeometry y="60" width="180" height="30" as="geometry" />
        </mxCell>
        <mxCell id="lyCUNibUH-FkbTB6WP0E-45" value="&lt;font color=&quot;#ffffff&quot;&gt;+ WeatherRepository&lt;/font&gt;" style="swimlane;fontStyle=0;childLayout=stackLayout;horizontal=1;startSize=26;fillColor=#000000;horizontalStack=0;resizeParent=1;resizeParentMax=0;resizeLast=0;collapsible=1;marginBottom=0;whiteSpace=wrap;html=1;" vertex="1" parent="1">
          <mxGeometry x="1117" y="780" width="190" height="90" as="geometry">
            <mxRectangle x="230" y="30" width="110" height="30" as="alternateBounds" />
          </mxGeometry>
        </mxCell>
        <mxCell id="lyCUNibUH-FkbTB6WP0E-46" value="" style="text;strokeColor=#000000;fillColor=#4D4D4D;align=left;verticalAlign=top;spacingLeft=4;spacingRight=4;overflow=hidden;rotatable=0;points=[[0,0.5],[1,0.5]];portConstraint=eastwest;whiteSpace=wrap;html=1;fontColor=#FFFFFF;" vertex="1" parent="lyCUNibUH-FkbTB6WP0E-45">
          <mxGeometry y="26" width="190" height="34" as="geometry" />
        </mxCell>
        <mxCell id="lyCUNibUH-FkbTB6WP0E-47" value="" style="text;strokeColor=default;fillColor=#4D4D4D;align=left;verticalAlign=top;spacingLeft=4;spacingRight=4;overflow=hidden;rotatable=0;points=[[0,0.5],[1,0.5]];portConstraint=eastwest;whiteSpace=wrap;html=1;fontColor=#FFFFFF;" vertex="1" parent="lyCUNibUH-FkbTB6WP0E-45">
          <mxGeometry y="60" width="190" height="30" as="geometry" />
        </mxCell>
        <mxCell id="lyCUNibUH-FkbTB6WP0E-48" value="&lt;font color=&quot;#ffffff&quot;&gt;+ SimulationRepository&lt;/font&gt;" style="swimlane;fontStyle=0;childLayout=stackLayout;horizontal=1;startSize=26;fillColor=#000000;horizontalStack=0;resizeParent=1;resizeParentMax=0;resizeLast=0;collapsible=1;marginBottom=0;whiteSpace=wrap;html=1;" vertex="1" parent="1">
          <mxGeometry x="684" y="782" width="200" height="90" as="geometry">
            <mxRectangle x="230" y="30" width="110" height="30" as="alternateBounds" />
          </mxGeometry>
        </mxCell>
        <mxCell id="lyCUNibUH-FkbTB6WP0E-49" value="" style="text;strokeColor=#000000;fillColor=#4D4D4D;align=left;verticalAlign=top;spacingLeft=4;spacingRight=4;overflow=hidden;rotatable=0;points=[[0,0.5],[1,0.5]];portConstraint=eastwest;whiteSpace=wrap;html=1;fontColor=#FFFFFF;" vertex="1" parent="lyCUNibUH-FkbTB6WP0E-48">
          <mxGeometry y="26" width="200" height="34" as="geometry" />
        </mxCell>
        <mxCell id="lyCUNibUH-FkbTB6WP0E-50" value="" style="text;strokeColor=default;fillColor=#4D4D4D;align=left;verticalAlign=top;spacingLeft=4;spacingRight=4;overflow=hidden;rotatable=0;points=[[0,0.5],[1,0.5]];portConstraint=eastwest;whiteSpace=wrap;html=1;fontColor=#FFFFFF;" vertex="1" parent="lyCUNibUH-FkbTB6WP0E-48">
          <mxGeometry y="60" width="200" height="30" as="geometry" />
        </mxCell>
        <mxCell id="lyCUNibUH-FkbTB6WP0E-51" value="&lt;font color=&quot;#ffffff&quot;&gt;+ DifficultyRepository&lt;/font&gt;" style="swimlane;fontStyle=0;childLayout=stackLayout;horizontal=1;startSize=26;fillColor=#000000;horizontalStack=0;resizeParent=1;resizeParentMax=0;resizeLast=0;collapsible=1;marginBottom=0;whiteSpace=wrap;html=1;" vertex="1" parent="1">
          <mxGeometry x="894" y="782" width="210" height="90" as="geometry">
            <mxRectangle x="230" y="30" width="110" height="30" as="alternateBounds" />
          </mxGeometry>
        </mxCell>
        <mxCell id="lyCUNibUH-FkbTB6WP0E-52" value="" style="text;strokeColor=#000000;fillColor=#4D4D4D;align=left;verticalAlign=top;spacingLeft=4;spacingRight=4;overflow=hidden;rotatable=0;points=[[0,0.5],[1,0.5]];portConstraint=eastwest;whiteSpace=wrap;html=1;fontColor=#FFFFFF;" vertex="1" parent="lyCUNibUH-FkbTB6WP0E-51">
          <mxGeometry y="26" width="210" height="34" as="geometry" />
        </mxCell>
        <mxCell id="lyCUNibUH-FkbTB6WP0E-53" value="" style="text;strokeColor=default;fillColor=#4D4D4D;align=left;verticalAlign=top;spacingLeft=4;spacingRight=4;overflow=hidden;rotatable=0;points=[[0,0.5],[1,0.5]];portConstraint=eastwest;whiteSpace=wrap;html=1;fontColor=#FFFFFF;" vertex="1" parent="lyCUNibUH-FkbTB6WP0E-51">
          <mxGeometry y="60" width="210" height="30" as="geometry" />
        </mxCell>
        <mxCell id="lyCUNibUH-FkbTB6WP0E-54" value="&lt;font color=&quot;#ffffff&quot;&gt;+EquipementRepository&lt;/font&gt;" style="swimlane;fontStyle=0;childLayout=stackLayout;horizontal=1;startSize=26;fillColor=#000000;horizontalStack=0;resizeParent=1;resizeParentMax=0;resizeLast=0;collapsible=1;marginBottom=0;whiteSpace=wrap;html=1;" vertex="1" parent="1">
          <mxGeometry x="226" y="783" width="260" height="120" as="geometry">
            <mxRectangle x="230" y="30" width="110" height="30" as="alternateBounds" />
          </mxGeometry>
        </mxCell>
        <mxCell id="lyCUNibUH-FkbTB6WP0E-55" value="" style="text;strokeColor=#000000;fillColor=#4D4D4D;align=left;verticalAlign=top;spacingLeft=4;spacingRight=4;overflow=hidden;rotatable=0;points=[[0,0.5],[1,0.5]];portConstraint=eastwest;whiteSpace=wrap;html=1;fontColor=#FFFFFF;" vertex="1" parent="lyCUNibUH-FkbTB6WP0E-54">
          <mxGeometry y="26" width="260" height="34" as="geometry" />
        </mxCell>
        <mxCell id="lyCUNibUH-FkbTB6WP0E-56" value="&lt;div&gt;&lt;span style=&quot;background-color: initial;&quot;&gt;+ findByIncident(Incident incident)&lt;/span&gt;&lt;br&gt;&lt;/div&gt;" style="text;strokeColor=default;fillColor=#4D4D4D;align=left;verticalAlign=top;spacingLeft=4;spacingRight=4;overflow=hidden;rotatable=0;points=[[0,0.5],[1,0.5]];portConstraint=eastwest;whiteSpace=wrap;html=1;fontColor=#FFFFFF;" vertex="1" parent="lyCUNibUH-FkbTB6WP0E-54">
          <mxGeometry y="60" width="260" height="60" as="geometry" />
        </mxCell>
        <mxCell id="lyCUNibUH-FkbTB6WP0E-57" value="&lt;font color=&quot;#ffffff&quot;&gt;+SensorRepository&lt;/font&gt;" style="swimlane;fontStyle=0;childLayout=stackLayout;horizontal=1;startSize=26;fillColor=#000000;horizontalStack=0;resizeParent=1;resizeParentMax=0;resizeLast=0;collapsible=1;marginBottom=0;whiteSpace=wrap;html=1;" vertex="1" parent="1">
          <mxGeometry x="-370" y="783" width="150" height="90" as="geometry" />
        </mxCell>
        <mxCell id="lyCUNibUH-FkbTB6WP0E-58" value="" style="text;strokeColor=#000000;fillColor=#4D4D4D;align=left;verticalAlign=top;spacingLeft=4;spacingRight=4;overflow=hidden;rotatable=0;points=[[0,0.5],[1,0.5]];portConstraint=eastwest;whiteSpace=wrap;html=1;fontColor=#FFFFFF;" vertex="1" parent="lyCUNibUH-FkbTB6WP0E-57">
          <mxGeometry y="26" width="150" height="34" as="geometry" />
        </mxCell>
        <mxCell id="lyCUNibUH-FkbTB6WP0E-59" value="" style="text;strokeColor=default;fillColor=#4D4D4D;align=left;verticalAlign=top;spacingLeft=4;spacingRight=4;overflow=hidden;rotatable=0;points=[[0,0.5],[1,0.5]];portConstraint=eastwest;whiteSpace=wrap;html=1;fontColor=#FFFFFF;" vertex="1" parent="lyCUNibUH-FkbTB6WP0E-57">
          <mxGeometry y="60" width="150" height="30" as="geometry" />
        </mxCell>
        <mxCell id="lyCUNibUH-FkbTB6WP0E-60" value="&lt;font color=&quot;#ffffff&quot;&gt;+IncidentRepository&lt;/font&gt;" style="swimlane;fontStyle=0;childLayout=stackLayout;horizontal=1;startSize=26;fillColor=#000000;horizontalStack=0;resizeParent=1;resizeParentMax=0;resizeLast=0;collapsible=1;marginBottom=0;whiteSpace=wrap;html=1;" vertex="1" parent="1">
          <mxGeometry x="-205" y="780" width="225" height="105" as="geometry" />
        </mxCell>
        <mxCell id="lyCUNibUH-FkbTB6WP0E-61" value="" style="text;strokeColor=#000000;fillColor=#4D4D4D;align=left;verticalAlign=top;spacingLeft=4;spacingRight=4;overflow=hidden;rotatable=0;points=[[0,0.5],[1,0.5]];portConstraint=eastwest;whiteSpace=wrap;html=1;fontColor=#FFFFFF;" vertex="1" parent="lyCUNibUH-FkbTB6WP0E-60">
          <mxGeometry y="26" width="225" height="34" as="geometry" />
        </mxCell>
        <mxCell id="lyCUNibUH-FkbTB6WP0E-62" value="+ findByStatus(bool status)&lt;br&gt;+ findBySimulation(Simulation simu)" style="text;strokeColor=default;fillColor=#4D4D4D;align=left;verticalAlign=top;spacingLeft=4;spacingRight=4;overflow=hidden;rotatable=0;points=[[0,0.5],[1,0.5]];portConstraint=eastwest;whiteSpace=wrap;html=1;fontColor=#FFFFFF;" vertex="1" parent="lyCUNibUH-FkbTB6WP0E-60">
          <mxGeometry y="60" width="225" height="45" as="geometry" />
        </mxCell>
        <mxCell id="lyCUNibUH-FkbTB6WP0E-63" style="edgeStyle=orthogonalEdgeStyle;rounded=0;orthogonalLoop=1;jettySize=auto;html=1;endArrow=none;endFill=0;" edge="1" parent="1" source="lyCUNibUH-FkbTB6WP0E-64">
          <mxGeometry relative="1" as="geometry">
            <mxPoint x="124" y="750" as="targetPoint" />
          </mxGeometry>
        </mxCell>
        <mxCell id="lyCUNibUH-FkbTB6WP0E-64" value="&lt;font color=&quot;#ffffff&quot;&gt;+SensorHistoRepository&lt;/font&gt;" style="swimlane;fontStyle=0;childLayout=stackLayout;horizontal=1;startSize=26;fillColor=#000000;horizontalStack=0;resizeParent=1;resizeParentMax=0;resizeLast=0;collapsible=1;marginBottom=0;whiteSpace=wrap;html=1;" vertex="1" parent="1">
          <mxGeometry x="34" y="783" width="180" height="105" as="geometry" />
        </mxCell>
        <mxCell id="lyCUNibUH-FkbTB6WP0E-65" value="" style="text;strokeColor=#000000;fillColor=#4D4D4D;align=left;verticalAlign=top;spacingLeft=4;spacingRight=4;overflow=hidden;rotatable=0;points=[[0,0.5],[1,0.5]];portConstraint=eastwest;whiteSpace=wrap;html=1;fontColor=#FFFFFF;" vertex="1" parent="lyCUNibUH-FkbTB6WP0E-64">
          <mxGeometry y="26" width="180" height="34" as="geometry" />
        </mxCell>
        <mxCell id="lyCUNibUH-FkbTB6WP0E-66" value="&lt;div&gt;+ findByIncident(Incident inc)&lt;/div&gt;&lt;div&gt;+ findNonProcessed()&lt;br&gt;&lt;/div&gt;" style="text;strokeColor=default;fillColor=#4D4D4D;align=left;verticalAlign=top;spacingLeft=4;spacingRight=4;overflow=hidden;rotatable=0;points=[[0,0.5],[1,0.5]];portConstraint=eastwest;whiteSpace=wrap;html=1;fontColor=#FFFFFF;" vertex="1" parent="lyCUNibUH-FkbTB6WP0E-64">
          <mxGeometry y="60" width="180" height="45" as="geometry" />
        </mxCell>
        <mxCell id="lyCUNibUH-FkbTB6WP0E-67" value="&lt;font color=&quot;#ffffff&quot;&gt;Abstract &lt;i&gt;+Repository&lt;/i&gt;&lt;/font&gt;" style="swimlane;fontStyle=0;childLayout=stackLayout;horizontal=1;startSize=26;fillColor=#000000;horizontalStack=0;resizeParent=1;resizeParentMax=0;resizeLast=0;collapsible=1;marginBottom=0;whiteSpace=wrap;html=1;" vertex="1" parent="1">
          <mxGeometry x="214" y="495" width="190" height="200" as="geometry" />
        </mxCell>
        <mxCell id="lyCUNibUH-FkbTB6WP0E-68" value="&lt;div&gt;- ENDPOINT&lt;/div&gt;&lt;div&gt;- classe&lt;/div&gt;&lt;div&gt;~objectMapper&lt;br&gt;&lt;/div&gt;" style="text;strokeColor=#000000;fillColor=#4D4D4D;align=left;verticalAlign=top;spacingLeft=4;spacingRight=4;overflow=hidden;rotatable=0;points=[[0,0.5],[1,0.5]];portConstraint=eastwest;whiteSpace=wrap;html=1;fontColor=#FFFFFF;" vertex="1" parent="lyCUNibUH-FkbTB6WP0E-67">
          <mxGeometry y="26" width="190" height="64" as="geometry" />
        </mxCell>
        <mxCell id="lyCUNibUH-FkbTB6WP0E-69" value="&lt;div&gt;~ setClasse(Class classe)&lt;/div&gt;&lt;div&gt;~ setEndpoint(String endpoint)&lt;br&gt;&lt;/div&gt;&lt;div&gt;+ findOneByID(Long id)&lt;/div&gt;&lt;div&gt;+ findAll()&lt;/div&gt;&lt;div&gt;+ delete(Object object)&lt;/div&gt;&lt;div&gt;+ create(Object objet)&lt;/div&gt;&lt;div&gt;+ save(Object objet)&lt;br&gt;&lt;/div&gt;&lt;div&gt;&lt;br&gt;&lt;/div&gt;" style="text;strokeColor=default;fillColor=#4D4D4D;align=left;verticalAlign=top;spacingLeft=4;spacingRight=4;overflow=hidden;rotatable=0;points=[[0,0.5],[1,0.5]];portConstraint=eastwest;whiteSpace=wrap;html=1;fontColor=#FFFFFF;" vertex="1" parent="lyCUNibUH-FkbTB6WP0E-67">
          <mxGeometry y="90" width="190" height="110" as="geometry" />
        </mxCell>
        <mxCell id="lyCUNibUH-FkbTB6WP0E-70" value="&lt;b&gt;&lt;font style=&quot;font-size: 17px;&quot; color=&quot;#33ff33&quot;&gt;Objets&lt;/font&gt;&lt;/b&gt;" style="text;html=1;strokeColor=none;fillColor=none;align=center;verticalAlign=middle;whiteSpace=wrap;rounded=0;" vertex="1" parent="1">
          <mxGeometry x="-370" y="1067" width="60" height="30" as="geometry" />
        </mxCell>
        <mxCell id="lyCUNibUH-FkbTB6WP0E-71" value="&lt;font size=&quot;1&quot; color=&quot;#ff0000&quot;&gt;&lt;b style=&quot;font-size: 16px;&quot;&gt;Repository&lt;/b&gt;&lt;/font&gt;" style="text;html=1;strokeColor=none;fillColor=none;align=center;verticalAlign=middle;whiteSpace=wrap;rounded=0;" vertex="1" parent="1">
          <mxGeometry x="-355" y="495" width="60" height="30" as="geometry" />
        </mxCell>
        <mxCell id="lyCUNibUH-FkbTB6WP0E-72" style="edgeStyle=orthogonalEdgeStyle;rounded=0;orthogonalLoop=1;jettySize=auto;html=1;strokeWidth=5;endArrow=none;endFill=0;" edge="1" parent="1">
          <mxGeometry relative="1" as="geometry">
            <mxPoint x="-280" y="1080" as="targetPoint" />
            <mxPoint x="1340" y="1080" as="sourcePoint" />
          </mxGeometry>
        </mxCell>
        <mxCell id="lyCUNibUH-FkbTB6WP0E-73" value="&lt;font color=&quot;#ffffff&quot;&gt;Abstract &lt;i&gt;+Entities&lt;/i&gt;&lt;/font&gt;" style="swimlane;fontStyle=0;childLayout=stackLayout;horizontal=1;startSize=26;fillColor=#000000;horizontalStack=0;resizeParent=1;resizeParentMax=0;resizeLast=0;collapsible=1;marginBottom=0;whiteSpace=wrap;html=1;" vertex="1" parent="1">
          <mxGeometry x="1355" y="1152" width="190" height="60" as="geometry">
            <mxRectangle x="230" y="30" width="110" height="30" as="alternateBounds" />
          </mxGeometry>
        </mxCell>
        <mxCell id="lyCUNibUH-FkbTB6WP0E-74" value="+ ENDPOINT: String" style="text;strokeColor=#000000;fillColor=#4D4D4D;align=left;verticalAlign=top;spacingLeft=4;spacingRight=4;overflow=hidden;rotatable=0;points=[[0,0.5],[1,0.5]];portConstraint=eastwest;whiteSpace=wrap;html=1;fontColor=#FFFFFF;" vertex="1" parent="lyCUNibUH-FkbTB6WP0E-73">
          <mxGeometry y="26" width="190" height="34" as="geometry" />
        </mxCell>
        <mxCell id="lyCUNibUH-FkbTB6WP0E-75" value="" style="text;strokeColor=default;fillColor=#4D4D4D;align=left;verticalAlign=top;spacingLeft=4;spacingRight=4;overflow=hidden;rotatable=0;points=[[0,0.5],[1,0.5]];portConstraint=eastwest;whiteSpace=wrap;html=1;fontColor=#FFFFFF;" vertex="1" parent="lyCUNibUH-FkbTB6WP0E-73">
          <mxGeometry y="60" width="190" as="geometry" />
        </mxCell>
        <mxCell id="lyCUNibUH-FkbTB6WP0E-76" style="edgeStyle=orthogonalEdgeStyle;rounded=0;orthogonalLoop=1;jettySize=auto;html=1;exitX=0.5;exitY=0;exitDx=0;exitDy=0;entryX=0.5;entryY=1;entryDx=0;entryDy=0;strokeWidth=5;" edge="1" parent="1" source="lyCUNibUH-FkbTB6WP0E-77" target="lyCUNibUH-FkbTB6WP0E-73">
          <mxGeometry relative="1" as="geometry" />
        </mxCell>
        <mxCell id="lyCUNibUH-FkbTB6WP0E-77" value="&lt;font color=&quot;#ffffff&quot;&gt;+ObjectIdentify&lt;/font&gt;" style="swimlane;fontStyle=0;childLayout=stackLayout;horizontal=1;startSize=26;fillColor=#000000;horizontalStack=0;resizeParent=1;resizeParentMax=0;resizeLast=0;collapsible=1;marginBottom=0;whiteSpace=wrap;html=1;rounded=1;" vertex="1" parent="1">
          <mxGeometry x="1355" y="1324" width="190" height="60" as="geometry">
            <mxRectangle x="230" y="30" width="110" height="30" as="alternateBounds" />
          </mxGeometry>
        </mxCell>
        <mxCell id="lyCUNibUH-FkbTB6WP0E-78" value="+ getIdentify(): Object" style="text;strokeColor=#000000;fillColor=#4D4D4D;align=left;verticalAlign=top;spacingLeft=4;spacingRight=4;overflow=hidden;rotatable=0;points=[[0,0.5],[1,0.5]];portConstraint=eastwest;whiteSpace=wrap;html=1;fontColor=#FFFFFF;rounded=1;" vertex="1" parent="lyCUNibUH-FkbTB6WP0E-77">
          <mxGeometry y="26" width="190" height="34" as="geometry" />
        </mxCell>
        <mxCell id="lyCUNibUH-FkbTB6WP0E-79" value="" style="text;strokeColor=default;fillColor=#4D4D4D;align=left;verticalAlign=top;spacingLeft=4;spacingRight=4;overflow=hidden;rotatable=0;points=[[0,0.5],[1,0.5]];portConstraint=eastwest;whiteSpace=wrap;html=1;fontColor=#FFFFFF;" vertex="1" parent="lyCUNibUH-FkbTB6WP0E-77">
          <mxGeometry y="60" width="190" as="geometry" />
        </mxCell>
        <mxCell id="lyCUNibUH-FkbTB6WP0E-80" value="" style="endArrow=classic;html=1;rounded=0;strokeWidth=5;entryX=0.5;entryY=0;entryDx=0;entryDy=0;" edge="1" parent="1" target="lyCUNibUH-FkbTB6WP0E-19">
          <mxGeometry width="50" height="50" relative="1" as="geometry">
            <mxPoint x="-275" y="1080" as="sourcePoint" />
            <mxPoint x="-490" y="1155" as="targetPoint" />
          </mxGeometry>
        </mxCell>
        <mxCell id="lyCUNibUH-FkbTB6WP0E-81" value="" style="endArrow=classic;html=1;rounded=0;entryX=0.5;entryY=0;entryDx=0;entryDy=0;strokeWidth=5;" edge="1" parent="1" target="lyCUNibUH-FkbTB6WP0E-22">
          <mxGeometry width="50" height="50" relative="1" as="geometry">
            <mxPoint x="-75" y="1080" as="sourcePoint" />
            <mxPoint x="-470" y="1170" as="targetPoint" />
          </mxGeometry>
        </mxCell>
        <mxCell id="lyCUNibUH-FkbTB6WP0E-82" value="" style="endArrow=classic;html=1;rounded=0;strokeWidth=5;entryX=0.5;entryY=0;entryDx=0;entryDy=0;" edge="1" parent="1" target="lyCUNibUH-FkbTB6WP0E-25">
          <mxGeometry width="50" height="50" relative="1" as="geometry">
            <mxPoint x="124" y="1080" as="sourcePoint" />
            <mxPoint x="-74" y="1170" as="targetPoint" />
          </mxGeometry>
        </mxCell>
        <mxCell id="lyCUNibUH-FkbTB6WP0E-83" value="" style="endArrow=classic;html=1;rounded=0;strokeWidth=5;entryX=0.5;entryY=0;entryDx=0;entryDy=0;" edge="1" parent="1" target="lyCUNibUH-FkbTB6WP0E-16">
          <mxGeometry width="50" height="50" relative="1" as="geometry">
            <mxPoint x="356" y="1080" as="sourcePoint" />
            <mxPoint x="364.5" y="1152" as="targetPoint" />
          </mxGeometry>
        </mxCell>
        <mxCell id="lyCUNibUH-FkbTB6WP0E-84" value="" style="endArrow=classic;html=1;rounded=0;strokeWidth=5;entryX=0.5;entryY=0;entryDx=0;entryDy=0;" edge="1" parent="1" target="lyCUNibUH-FkbTB6WP0E-4">
          <mxGeometry width="50" height="50" relative="1" as="geometry">
            <mxPoint x="586" y="1080" as="sourcePoint" />
            <mxPoint x="371" y="1170" as="targetPoint" />
          </mxGeometry>
        </mxCell>
        <mxCell id="lyCUNibUH-FkbTB6WP0E-85" value="" style="endArrow=classic;html=1;rounded=0;strokeWidth=5;entryX=0.5;entryY=0;entryDx=0;entryDy=0;" edge="1" parent="1" target="lyCUNibUH-FkbTB6WP0E-10">
          <mxGeometry width="50" height="50" relative="1" as="geometry">
            <mxPoint x="784" y="1080" as="sourcePoint" />
            <mxPoint x="601" y="1170" as="targetPoint" />
          </mxGeometry>
        </mxCell>
        <mxCell id="lyCUNibUH-FkbTB6WP0E-86" value="" style="endArrow=classic;html=1;rounded=0;strokeWidth=5;entryX=0.5;entryY=0;entryDx=0;entryDy=0;" edge="1" parent="1" target="lyCUNibUH-FkbTB6WP0E-13">
          <mxGeometry width="50" height="50" relative="1" as="geometry">
            <mxPoint x="999" y="1080" as="sourcePoint" />
            <mxPoint x="799" y="1169" as="targetPoint" />
          </mxGeometry>
        </mxCell>
        <mxCell id="lyCUNibUH-FkbTB6WP0E-87" value="" style="endArrow=classic;html=1;rounded=0;strokeWidth=5;entryX=0.5;entryY=0;entryDx=0;entryDy=0;" edge="1" parent="1" target="lyCUNibUH-FkbTB6WP0E-7">
          <mxGeometry width="50" height="50" relative="1" as="geometry">
            <mxPoint x="1212" y="1080" as="sourcePoint" />
            <mxPoint x="814" y="1184" as="targetPoint" />
          </mxGeometry>
        </mxCell>
        <mxCell id="lyCUNibUH-FkbTB6WP0E-88" value="" style="endArrow=none;html=1;rounded=0;strokeWidth=5;endFill=0;" edge="1" parent="1" target="lyCUNibUH-FkbTB6WP0E-73">
          <mxGeometry width="50" height="50" relative="1" as="geometry">
            <mxPoint x="1340" y="1080" as="sourcePoint" />
            <mxPoint x="1227" y="1169" as="targetPoint" />
            <Array as="points">
              <mxPoint x="1450" y="1080" />
            </Array>
          </mxGeometry>
        </mxCell>
        <mxCell id="lyCUNibUH-FkbTB6WP0E-89" value="" style="endArrow=none;html=1;rounded=0;strokeColor=#000000;fillColor=#000000;strokeWidth=7;endFill=0;entryX=0.487;entryY=0.011;entryDx=0;entryDy=0;entryPerimeter=0;" edge="1" parent="1" target="lyCUNibUH-FkbTB6WP0E-51">
          <mxGeometry width="50" height="50" relative="1" as="geometry">
            <mxPoint x="996" y="735" as="sourcePoint" />
            <mxPoint x="994" y="780" as="targetPoint" />
          </mxGeometry>
        </mxCell>
        <mxCell id="lyCUNibUH-FkbTB6WP0E-90" value="" style="endArrow=none;html=1;rounded=0;strokeColor=#000000;fillColor=#000000;strokeWidth=7;endFill=0;" edge="1" parent="1">
          <mxGeometry width="50" height="50" relative="1" as="geometry">
            <mxPoint x="1220" y="735" as="sourcePoint" />
            <mxPoint x="1220" y="780" as="targetPoint" />
          </mxGeometry>
        </mxCell>
        <mxCell id="lyCUNibUH-FkbTB6WP0E-91" value="&lt;font color=&quot;#ffffff&quot;&gt;+MqttClient&lt;/font&gt;" style="swimlane;fontStyle=0;childLayout=stackLayout;horizontal=1;startSize=26;fillColor=#000000;horizontalStack=0;resizeParent=1;resizeParentMax=0;resizeLast=0;collapsible=1;marginBottom=0;whiteSpace=wrap;html=1;" vertex="1" parent="1">
          <mxGeometry x="905" y="277.5" width="270" height="150" as="geometry" />
        </mxCell>
        <mxCell id="lyCUNibUH-FkbTB6WP0E-92" value="&lt;div&gt;&lt;font color=&quot;#ffffff&quot;&gt;- httpClient&lt;/font&gt;&lt;/div&gt;&lt;div&gt;&lt;font color=&quot;#ffffff&quot;&gt;- objectMapper&lt;br&gt;&lt;/font&gt;&lt;/div&gt;" style="text;strokeColor=#000000;fillColor=#4D4D4D;align=left;verticalAlign=top;spacingLeft=4;spacingRight=4;overflow=hidden;rotatable=0;points=[[0,0.5],[1,0.5]];portConstraint=eastwest;whiteSpace=wrap;html=1;" vertex="1" parent="lyCUNibUH-FkbTB6WP0E-91">
          <mxGeometry y="26" width="270" height="49" as="geometry" />
        </mxCell>
        <mxCell id="lyCUNibUH-FkbTB6WP0E-93" value="&lt;div&gt;&lt;font color=&quot;#ffffff&quot;&gt;+ sendMessage(String: topic, String: message)&lt;/font&gt;&lt;/div&gt;&lt;div&gt;&lt;font color=&quot;#ffffff&quot;&gt;+ setCallback(MqttCallback: callback)&lt;/font&gt;&lt;/div&gt;&lt;div&gt;&lt;font color=&quot;#ffffff&quot;&gt;+ subscribe(String: topic)&lt;/font&gt;&lt;/div&gt;&lt;div&gt;&lt;font color=&quot;#ffffff&quot;&gt;+ disconnect()&lt;/font&gt;&lt;/div&gt;&lt;div&gt;&lt;font color=&quot;#ffffff&quot;&gt;&lt;br&gt;&lt;/font&gt;&lt;/div&gt;" style="text;strokeColor=default;fillColor=#4D4D4D;align=left;verticalAlign=top;spacingLeft=4;spacingRight=4;overflow=hidden;rotatable=0;points=[[0,0.5],[1,0.5]];portConstraint=eastwest;whiteSpace=wrap;html=1;" vertex="1" parent="lyCUNibUH-FkbTB6WP0E-91">
          <mxGeometry y="75" width="270" height="75" as="geometry" />
        </mxCell>
        <mxCell id="lyCUNibUH-FkbTB6WP0E-94" value="&lt;font color=&quot;#0000ff&quot; size=&quot;1&quot;&gt;&lt;b style=&quot;font-size: 16px;&quot;&gt;Client&lt;/b&gt;&lt;/font&gt;" style="text;html=1;strokeColor=none;fillColor=none;align=center;verticalAlign=middle;whiteSpace=wrap;rounded=0;" vertex="1" parent="1">
          <mxGeometry x="635" y="277.5" width="60" height="30" as="geometry" />
        </mxCell>
        <mxCell id="lyCUNibUH-FkbTB6WP0E-95" value="&lt;font color=&quot;#ffffff&quot;&gt;+MqttSubscribers&lt;/font&gt;" style="swimlane;fontStyle=0;childLayout=stackLayout;horizontal=1;startSize=26;fillColor=#000000;horizontalStack=0;resizeParent=1;resizeParentMax=0;resizeLast=0;collapsible=1;marginBottom=0;whiteSpace=wrap;html=1;" vertex="1" parent="1">
          <mxGeometry x="50" y="270" width="255" height="180" as="geometry" />
        </mxCell>
        <mxCell id="lyCUNibUH-FkbTB6WP0E-96" value="&lt;font color=&quot;#ffffff&quot;&gt;&lt;br&gt;&lt;/font&gt;" style="text;strokeColor=#000000;fillColor=#4D4D4D;align=left;verticalAlign=top;spacingLeft=4;spacingRight=4;overflow=hidden;rotatable=0;points=[[0,0.5],[1,0.5]];portConstraint=eastwest;whiteSpace=wrap;html=1;" vertex="1" parent="lyCUNibUH-FkbTB6WP0E-95">
          <mxGeometry y="26" width="255" height="49" as="geometry" />
        </mxCell>
        <mxCell id="lyCUNibUH-FkbTB6WP0E-97" value="&lt;div&gt;&lt;font color=&quot;#ffffff&quot;&gt;+main()&lt;/font&gt;&lt;/div&gt;" style="text;strokeColor=default;fillColor=#4D4D4D;align=left;verticalAlign=top;spacingLeft=4;spacingRight=4;overflow=hidden;rotatable=0;points=[[0,0.5],[1,0.5]];portConstraint=eastwest;whiteSpace=wrap;html=1;" vertex="1" parent="lyCUNibUH-FkbTB6WP0E-95">
          <mxGeometry y="75" width="255" height="105" as="geometry" />
        </mxCell>
        <mxCell id="lyCUNibUH-FkbTB6WP0E-98" value="&lt;font color=&quot;#ffffff&quot;&gt;+Event_equipement&lt;/font&gt;" style="swimlane;fontStyle=0;childLayout=stackLayout;horizontal=1;startSize=26;fillColor=#000000;horizontalStack=0;resizeParent=1;resizeParentMax=0;resizeLast=0;collapsible=1;marginBottom=0;whiteSpace=wrap;html=1;" vertex="1" parent="1">
          <mxGeometry x="-575" y="1155" width="190" height="250" as="geometry">
            <mxRectangle x="230" y="30" width="110" height="30" as="alternateBounds" />
          </mxGeometry>
        </mxCell>
        <mxCell id="lyCUNibUH-FkbTB6WP0E-99" value="&lt;div&gt;+ ENDPOINT: String&lt;br&gt;&lt;/div&gt;&lt;div&gt;- id: Long&lt;br&gt;&lt;/div&gt;&lt;div&gt;- name: String&lt;/div&gt;&lt;div&gt;&lt;span style=&quot;background-color: initial;&quot;&gt;- pound: Float&lt;/span&gt;&lt;br&gt;&lt;/div&gt;" style="text;strokeColor=#000000;fillColor=#4D4D4D;align=left;verticalAlign=top;spacingLeft=4;spacingRight=4;overflow=hidden;rotatable=0;points=[[0,0.5],[1,0.5]];portConstraint=eastwest;whiteSpace=wrap;html=1;fontColor=#FFFFFF;" vertex="1" parent="lyCUNibUH-FkbTB6WP0E-98">
          <mxGeometry y="26" width="190" height="94" as="geometry" />
        </mxCell>
        <mxCell id="lyCUNibUH-FkbTB6WP0E-100" value="&lt;div&gt;+ getId()&lt;br&gt;&lt;/div&gt;&lt;div&gt;+ setId(Long: id)&lt;br&gt;&lt;/div&gt;&lt;div&gt;+ getName()&lt;/div&gt;&lt;div&gt;+ setName(String: name)&lt;/div&gt;&lt;div&gt;&lt;span style=&quot;background-color: initial;&quot;&gt;+ getPound()&lt;/span&gt;&lt;br&gt;&lt;/div&gt;&lt;div&gt;&lt;div style=&quot;border-color: var(--border-color);&quot;&gt;+ setPound(Long pound)&lt;/div&gt;&lt;/div&gt;" style="text;strokeColor=default;fillColor=#4D4D4D;align=left;verticalAlign=top;spacingLeft=4;spacingRight=4;overflow=hidden;rotatable=0;points=[[0,0.5],[1,0.5]];portConstraint=eastwest;whiteSpace=wrap;html=1;fontColor=#FFFFFF;" vertex="1" parent="lyCUNibUH-FkbTB6WP0E-98">
          <mxGeometry y="120" width="190" height="130" as="geometry" />
        </mxCell>
        <mxCell id="lyCUNibUH-FkbTB6WP0E-101" value="&lt;font color=&quot;#ffffff&quot;&gt;+ EventEquipementRepository&lt;/font&gt;" style="swimlane;fontStyle=0;childLayout=stackLayout;horizontal=1;startSize=26;fillColor=#000000;horizontalStack=0;resizeParent=1;resizeParentMax=0;resizeLast=0;collapsible=1;marginBottom=0;whiteSpace=wrap;html=1;" vertex="1" parent="1">
          <mxGeometry x="-580" y="780" width="190" height="90" as="geometry" />
        </mxCell>
        <mxCell id="lyCUNibUH-FkbTB6WP0E-102" value="" style="text;strokeColor=#000000;fillColor=#4D4D4D;align=left;verticalAlign=top;spacingLeft=4;spacingRight=4;overflow=hidden;rotatable=0;points=[[0,0.5],[1,0.5]];portConstraint=eastwest;whiteSpace=wrap;html=1;fontColor=#FFFFFF;" vertex="1" parent="lyCUNibUH-FkbTB6WP0E-101">
          <mxGeometry y="26" width="190" height="34" as="geometry" />
        </mxCell>
        <mxCell id="lyCUNibUH-FkbTB6WP0E-103" value="" style="text;strokeColor=default;fillColor=#4D4D4D;align=left;verticalAlign=top;spacingLeft=4;spacingRight=4;overflow=hidden;rotatable=0;points=[[0,0.5],[1,0.5]];portConstraint=eastwest;whiteSpace=wrap;html=1;fontColor=#FFFFFF;" vertex="1" parent="lyCUNibUH-FkbTB6WP0E-101">
          <mxGeometry y="60" width="190" height="30" as="geometry" />
        </mxCell>
        <mxCell id="lyCUNibUH-FkbTB6WP0E-104" value="" style="endArrow=none;html=1;rounded=0;strokeColor=#000000;fillColor=#000000;strokeWidth=7;endFill=0;" edge="1" parent="1">
          <mxGeometry width="50" height="50" relative="1" as="geometry">
            <mxPoint x="-490" y="735" as="sourcePoint" />
            <mxPoint x="-490" y="785" as="targetPoint" />
          </mxGeometry>
        </mxCell>
        <mxCell id="lyCUNibUH-FkbTB6WP0E-107" value="&lt;font color=&quot;#ffffff&quot;&gt;+SimulationProcessing&lt;/font&gt;" style="swimlane;fontStyle=0;childLayout=stackLayout;horizontal=1;startSize=26;fillColor=#000000;horizontalStack=0;resizeParent=1;resizeParentMax=0;resizeLast=0;collapsible=1;marginBottom=0;whiteSpace=wrap;html=1;" vertex="1" parent="1">
          <mxGeometry x="-221" y="80" width="255" height="180" as="geometry" />
        </mxCell>
        <mxCell id="lyCUNibUH-FkbTB6WP0E-108" value="&lt;font color=&quot;#ffffff&quot;&gt;&lt;br&gt;&lt;/font&gt;" style="text;strokeColor=#000000;fillColor=#4D4D4D;align=left;verticalAlign=top;spacingLeft=4;spacingRight=4;overflow=hidden;rotatable=0;points=[[0,0.5],[1,0.5]];portConstraint=eastwest;whiteSpace=wrap;html=1;" vertex="1" parent="lyCUNibUH-FkbTB6WP0E-107">
          <mxGeometry y="26" width="255" height="49" as="geometry" />
        </mxCell>
        <mxCell id="lyCUNibUH-FkbTB6WP0E-109" value="&lt;div&gt;&lt;font color=&quot;#ffffff&quot;&gt;+main()&lt;/font&gt;&lt;/div&gt;" style="text;strokeColor=default;fillColor=#4D4D4D;align=left;verticalAlign=top;spacingLeft=4;spacingRight=4;overflow=hidden;rotatable=0;points=[[0,0.5],[1,0.5]];portConstraint=eastwest;whiteSpace=wrap;html=1;" vertex="1" parent="lyCUNibUH-FkbTB6WP0E-107">
          <mxGeometry y="75" width="255" height="105" as="geometry" />
        </mxCell>
        <mxCell id="lyCUNibUH-FkbTB6WP0E-110" value="&lt;font color=&quot;#ffffff&quot;&gt;+IncidentProcessing&lt;/font&gt;" style="swimlane;fontStyle=0;childLayout=stackLayout;horizontal=1;startSize=26;fillColor=#000000;horizontalStack=0;resizeParent=1;resizeParentMax=0;resizeLast=0;collapsible=1;marginBottom=0;whiteSpace=wrap;html=1;" vertex="1" parent="1">
          <mxGeometry x="50" y="80" width="255" height="180" as="geometry" />
        </mxCell>
        <mxCell id="lyCUNibUH-FkbTB6WP0E-111" value="&lt;font color=&quot;#ffffff&quot;&gt;&lt;br&gt;&lt;/font&gt;" style="text;strokeColor=#000000;fillColor=#4D4D4D;align=left;verticalAlign=top;spacingLeft=4;spacingRight=4;overflow=hidden;rotatable=0;points=[[0,0.5],[1,0.5]];portConstraint=eastwest;whiteSpace=wrap;html=1;" vertex="1" parent="lyCUNibUH-FkbTB6WP0E-110">
          <mxGeometry y="26" width="255" height="49" as="geometry" />
        </mxCell>
        <mxCell id="lyCUNibUH-FkbTB6WP0E-112" value="&lt;div&gt;&lt;font color=&quot;#ffffff&quot;&gt;+main()&lt;/font&gt;&lt;/div&gt;" style="text;strokeColor=default;fillColor=#4D4D4D;align=left;verticalAlign=top;spacingLeft=4;spacingRight=4;overflow=hidden;rotatable=0;points=[[0,0.5],[1,0.5]];portConstraint=eastwest;whiteSpace=wrap;html=1;" vertex="1" parent="lyCUNibUH-FkbTB6WP0E-110">
          <mxGeometry y="75" width="255" height="105" as="geometry" />
        </mxCell>
      </root>
    </mxGraphModel>
  </diagram>
</mxfile>
